<svg width="667" height="288" viewBox="0 0 667 288" fill="none" xmlns="http://www.w3.org/2000/svg">
<path d="M85.4043 52.5977C92.7611 53.5742 98.002 55.6901 101.127 58.9453C104.252 62.168 105.814 66.0579 105.814 70.6152C105.814 74.3913 104.838 77.7441 102.885 80.6738C100.964 83.6035 98.1973 85.8984 94.584 87.5586C90.9707 89.1862 86.7064 90 81.791 90C80.4564 90 78.1126 89.9512 74.7598 89.8535C71.4069 89.7559 68.0215 89.707 64.6035 89.707C59.1348 89.707 55.0007 89.8047 52.2012 90V87.998C54.61 87.9004 56.3516 87.64 57.4258 87.2168C58.5326 86.7936 59.2812 86.0124 59.6719 84.873C60.0951 83.7337 60.3066 81.9108 60.3066 79.4043V29.7949C60.3066 27.2884 60.0951 25.4655 59.6719 24.3262C59.2812 23.1868 58.5326 22.4056 57.4258 21.9824C56.3516 21.5592 54.61 21.2988 52.2012 21.2012V19.1992C54.9681 19.3945 59.0371 19.4922 64.4082 19.4922C67.0124 19.4922 69.877 19.4596 73.002 19.3945C76.1595 19.3294 78.3242 19.2969 79.4961 19.2969C84.0534 19.2969 87.9108 19.9642 91.0684 21.2988C94.2259 22.6009 96.6022 24.4401 98.1973 26.8164C99.7923 29.1602 100.59 31.8945 100.59 35.0195C100.59 38.8607 99.3691 42.3112 96.9277 45.3711C94.5189 48.431 90.6777 50.7747 85.4043 52.4023V52.5977ZM76.3223 52.4023C81.7585 52.4023 85.5671 50.9212 87.748 47.959C89.929 44.9967 91.0195 41.0417 91.0195 36.0938C91.0195 31.0807 89.9128 27.3535 87.6992 24.9121C85.4857 22.4382 81.9212 21.2012 77.0059 21.2012C74.9225 21.2012 73.36 21.4453 72.3184 21.9336C71.2767 22.3893 70.5605 23.2194 70.1699 24.4238C69.7793 25.6283 69.584 27.4186 69.584 29.7949V52.4023H76.3223ZM69.584 79.4043C69.584 81.8132 69.7793 83.5872 70.1699 84.7266C70.5605 85.8659 71.2767 86.6471 72.3184 87.0703C73.36 87.4935 74.9551 87.7051 77.1035 87.7051C89.571 87.7051 95.8047 81.862 95.8047 70.1758C95.8047 64.9349 94.3724 60.9473 91.5078 58.2129C88.6758 55.4785 84.1673 54.1113 77.9824 54.1113H69.584V79.4043ZM156.596 77.9883C155.814 80.332 154.561 82.5293 152.836 84.5801C151.143 86.5983 149.011 88.2422 146.439 89.5117C143.9 90.7812 141.052 91.416 137.895 91.416C133.142 91.416 129.024 90.3418 125.541 88.1934C122.09 86.0124 119.454 82.9688 117.631 79.0625C115.808 75.1237 114.896 70.599 114.896 65.4883C114.896 59.694 115.824 54.6647 117.68 50.4004C119.535 46.1361 122.156 42.8646 125.541 40.5859C128.959 38.2747 132.947 37.1191 137.504 37.1191C143.493 37.1191 148.1 38.9421 151.322 42.5879C154.577 46.2012 156.205 51.7025 156.205 59.0918H124.955C124.727 60.8171 124.613 62.9492 124.613 65.4883C124.613 69.8828 125.329 73.724 126.762 77.0117C128.227 80.2995 130.131 82.8223 132.475 84.5801C134.818 86.3379 137.292 87.2168 139.896 87.2168C146.602 87.2168 151.501 83.8802 154.594 77.207L156.596 77.9883ZM146.586 57.1875C146.716 53.8672 146.439 50.8236 145.756 48.0566C145.072 45.2897 143.998 43.0924 142.533 41.4648C141.068 39.8372 139.262 39.0234 137.113 39.0234C135.062 39.0234 133.174 39.6908 131.449 41.0254C129.724 42.3275 128.259 44.3457 127.055 47.0801C125.883 49.7819 125.134 53.151 124.809 57.1875H146.586ZM169.096 70.7129C169.584 74.847 170.284 78.2487 171.195 80.918C172.107 83.5872 173.507 85.6706 175.395 87.168C177.283 88.6654 179.822 89.4141 183.012 89.4141C184.477 89.4141 185.876 89.1048 187.211 88.4863C188.578 87.8353 189.701 86.8099 190.58 85.4102C191.459 83.9779 191.898 82.1387 191.898 79.8926C191.898 78.0697 191.426 76.4421 190.482 75.0098C189.571 73.5449 188.367 72.2428 186.869 71.1035C185.372 69.9316 183.272 68.4993 180.57 66.8066C177.283 64.7233 174.76 63.0143 173.002 61.6797C171.277 60.3451 169.812 58.7174 168.607 56.7969C167.403 54.8763 166.801 52.6139 166.801 50.0098C166.801 47.1777 167.468 44.8014 168.803 42.8809C170.137 40.9277 171.911 39.4792 174.125 38.5352C176.371 37.5911 178.861 37.1191 181.596 37.1191C183.939 37.1191 186.039 37.4935 187.895 38.2422C189.783 38.9909 191.312 39.8372 192.484 40.7812C193.201 41.3346 193.786 41.6113 194.242 41.6113C195.414 41.6113 196.163 40.1465 196.488 37.2168H198.783C198.523 40.472 198.393 46.1361 198.393 54.209H196.098C195.382 49.8145 193.965 46.1849 191.85 43.3203C189.734 40.4557 186.609 39.0234 182.475 39.0234C180.066 39.0234 178.096 39.707 176.566 41.0742C175.036 42.4089 174.271 44.2806 174.271 46.6895C174.271 49.0007 175.053 50.9375 176.615 52.5C178.21 54.0299 180.115 55.4948 182.328 56.8945C184.574 58.2943 186.169 59.3034 187.113 59.9219C190.173 61.9076 192.631 63.6816 194.486 65.2441C196.374 66.7741 197.888 68.5482 199.027 70.5664C200.199 72.5521 200.785 74.8307 200.785 77.4023C200.785 80.3646 200.004 82.9036 198.441 85.0195C196.911 87.1029 194.844 88.6979 192.24 89.8047C189.636 90.8789 186.788 91.416 183.695 91.416C180.733 91.416 178.096 90.944 175.785 90C174.483 89.349 173.116 88.4538 171.684 87.3145C171.423 87.054 171.114 86.9238 170.756 86.9238C169.779 86.9238 169.096 88.1771 168.705 90.6836H166.41C166.671 86.875 166.801 80.2181 166.801 70.7129H169.096ZM239.359 38.584V40.5859H224.564V79.3066C224.564 82.334 225.102 84.515 226.176 85.8496C227.25 87.1517 228.845 87.8027 230.961 87.8027C233.044 87.8027 234.818 86.9727 236.283 85.3125C237.748 83.6523 238.985 80.918 239.994 77.1094L241.947 77.5977C240.32 86.8099 235.99 91.416 228.959 91.416C226.713 91.416 224.857 91.1393 223.393 90.5859C221.928 90.0651 220.626 89.235 219.486 88.0957C218.054 86.6309 217.045 84.8405 216.459 82.7246C215.873 80.5762 215.58 77.6953 215.58 74.082V40.5859H205.961V38.584H215.58V23.3008C219.324 23.2031 222.318 22.7311 224.564 21.8848V38.584H239.359ZM274.711 38.584C274.711 34.6126 274.874 31.3086 275.199 28.6719C275.525 26.0026 276.046 23.7402 276.762 21.8848C277.51 20.0293 278.536 18.3366 279.838 16.8066C281.14 15.2441 282.833 14.0234 284.916 13.1445C286.999 12.2331 289.262 11.7773 291.703 11.7773C295.121 11.7773 298.018 12.6888 300.395 14.5117C302.478 16.2044 303.52 18.2715 303.52 20.7129C303.52 22.2428 303.015 23.5124 302.006 24.5215C301.029 25.498 299.76 25.9863 298.197 25.9863C296.667 25.9863 295.365 25.498 294.291 24.5215C293.249 23.5449 292.729 22.2428 292.729 20.6152C292.729 19.248 293.103 18.125 293.852 17.2461C294.633 16.3346 295.658 15.7487 296.928 15.4883C296.732 14.8698 296.195 14.349 295.316 13.9258C294.438 13.5026 293.331 13.291 291.996 13.291C289.034 13.291 286.869 14.528 285.502 17.002C284.753 18.3366 284.265 20.3385 284.037 23.0078C283.809 25.6445 283.695 29.974 283.695 35.9961V38.584H294.438V40.5859H283.695V79.6973C283.695 82.7897 284.574 84.9382 286.332 86.1426C288.09 87.3145 290.743 87.9004 294.291 87.9004V90C286.088 89.7396 280.961 89.6094 278.91 89.6094C277.283 89.6094 273.344 89.7396 267.094 90V87.9004C268.982 87.9004 270.463 87.6888 271.537 87.2656C272.644 86.8424 273.441 86.11 273.93 85.0684C274.451 84.0267 274.711 82.5781 274.711 80.7227V40.5859H266.703V38.584H274.711ZM322.953 37.1191C327.348 37.1191 331.238 38.0794 334.623 40C338.041 41.9206 340.727 44.9154 342.68 48.9844C344.665 53.0208 345.658 58.1315 345.658 64.3164C345.658 70.5013 344.665 75.612 342.68 79.6484C340.727 83.6849 338.041 86.6634 334.623 88.584C331.238 90.472 327.348 91.416 322.953 91.416C318.559 91.416 314.652 90.472 311.234 88.584C307.849 86.6634 305.163 83.6849 303.178 79.6484C301.225 75.612 300.248 70.5013 300.248 64.3164C300.248 58.1315 301.225 53.0208 303.178 48.9844C305.163 44.9154 307.849 41.9206 311.234 40C314.652 38.0794 318.559 37.1191 322.953 37.1191ZM322.953 39.1211C318.949 39.1211 315.775 41.1719 313.432 45.2734C311.12 49.375 309.965 55.7227 309.965 64.3164C309.965 72.8776 311.12 79.209 313.432 83.3105C315.775 87.3796 318.949 89.4141 322.953 89.4141C326.957 89.4141 330.115 87.3796 332.426 83.3105C334.77 79.209 335.941 72.8776 335.941 64.3164C335.941 55.7227 334.77 49.375 332.426 45.2734C330.115 41.1719 326.957 39.1211 322.953 39.1211ZM377.738 37.1191C382.133 37.1191 386.023 38.0794 389.408 40C392.826 41.9206 395.512 44.9154 397.465 48.9844C399.451 53.0208 400.443 58.1315 400.443 64.3164C400.443 70.5013 399.451 75.612 397.465 79.6484C395.512 83.6849 392.826 86.6634 389.408 88.584C386.023 90.472 382.133 91.416 377.738 91.416C373.344 91.416 369.438 90.472 366.02 88.584C362.634 86.6634 359.949 83.6849 357.963 79.6484C356.01 75.612 355.033 70.5013 355.033 64.3164C355.033 58.1315 356.01 53.0208 357.963 48.9844C359.949 44.9154 362.634 41.9206 366.02 40C369.438 38.0794 373.344 37.1191 377.738 37.1191ZM377.738 39.1211C373.734 39.1211 370.561 41.1719 368.217 45.2734C365.906 49.375 364.75 55.7227 364.75 64.3164C364.75 72.8776 365.906 79.209 368.217 83.3105C370.561 87.3796 373.734 89.4141 377.738 89.4141C381.742 89.4141 384.9 87.3796 387.211 83.3105C389.555 79.209 390.727 72.8776 390.727 64.3164C390.727 55.7227 389.555 49.375 387.211 45.2734C384.9 41.1719 381.742 39.1211 377.738 39.1211ZM453.568 79.1113C453.568 82.2038 454.122 84.4499 455.229 85.8496C456.368 87.2168 458.354 87.9004 461.186 87.9004V90C459.07 89.8047 457.003 89.707 454.984 89.707C450.688 89.707 447.221 90.179 444.584 91.123V82.2363C443.347 85.2311 441.524 87.5098 439.115 89.0723C436.739 90.6348 433.826 91.416 430.375 91.416C426.143 91.416 422.497 90.4069 419.438 88.3887C416.378 86.3704 414.018 83.3431 412.357 79.3066C410.73 75.2702 409.932 70.2734 409.965 64.3164C409.932 58.4896 410.941 53.5254 412.992 49.4238C415.043 45.3223 417.777 42.2461 421.195 40.1953C424.646 38.1445 428.438 37.1191 432.572 37.1191C435.111 37.1191 437.439 37.6074 439.555 38.584C441.703 39.528 443.38 41.0091 444.584 43.0273V23.5938C444.584 20.5013 444.014 18.2715 442.875 16.9043C441.768 15.5046 439.799 14.8047 436.967 14.8047V12.7051C439.083 12.9004 441.15 12.998 443.168 12.998C447.465 12.998 450.932 12.526 453.568 11.582V79.1113ZM444.584 47.1289C442.729 41.9857 439.001 39.4141 433.402 39.4141C430.701 39.4141 428.308 40.3418 426.225 42.1973C424.174 44.0202 422.562 46.8034 421.391 50.5469C420.219 54.2578 419.649 58.8477 419.682 64.3164C419.649 72.3242 420.772 78.3464 423.051 82.3828C425.362 86.3867 428.764 88.3887 433.256 88.3887C434.981 88.3887 436.609 87.9492 438.139 87.0703C439.669 86.1914 441.003 84.8893 442.143 83.1641C443.282 81.4062 444.096 79.3066 444.584 76.8652V47.1289ZM498.734 38.584C498.734 34.6126 498.897 31.3086 499.223 28.6719C499.548 26.0026 500.069 23.7402 500.785 21.8848C501.534 20.0293 502.559 18.3366 503.861 16.8066C505.163 15.2441 506.856 14.0234 508.939 13.1445C511.023 12.2331 513.285 11.7773 515.727 11.7773C519.145 11.7773 522.042 12.6888 524.418 14.5117C526.501 16.2044 527.543 18.2715 527.543 20.7129C527.543 22.2428 527.038 23.5124 526.029 24.5215C525.053 25.498 523.783 25.9863 522.221 25.9863C520.691 25.9863 519.389 25.498 518.314 24.5215C517.273 23.5449 516.752 22.2428 516.752 20.6152C516.752 19.248 517.126 18.125 517.875 17.2461C518.656 16.3346 519.682 15.7487 520.951 15.4883C520.756 14.8698 520.219 14.349 519.34 13.9258C518.461 13.5026 517.354 13.291 516.02 13.291C513.057 13.291 510.893 14.528 509.525 17.002C508.777 18.3366 508.288 20.3385 508.061 23.0078C507.833 25.6445 507.719 29.974 507.719 35.9961V38.584H518.461V40.5859H507.719V79.6973C507.719 82.7897 508.598 84.9382 510.355 86.1426C512.113 87.3145 514.766 87.9004 518.314 87.9004V90C510.111 89.7396 504.984 89.6094 502.934 89.6094C501.306 89.6094 497.367 89.7396 491.117 90V87.9004C493.005 87.9004 494.486 87.6888 495.561 87.2656C496.667 86.8424 497.465 86.11 497.953 85.0684C498.474 84.0267 498.734 82.5781 498.734 80.7227V40.5859H490.727V38.584H498.734ZM546.977 37.1191C551.371 37.1191 555.261 38.0794 558.646 40C562.064 41.9206 564.75 44.9154 566.703 48.9844C568.689 53.0208 569.682 58.1315 569.682 64.3164C569.682 70.5013 568.689 75.612 566.703 79.6484C564.75 83.6849 562.064 86.6634 558.646 88.584C555.261 90.472 551.371 91.416 546.977 91.416C542.582 91.416 538.676 90.472 535.258 88.584C531.872 86.6634 529.187 83.6849 527.201 79.6484C525.248 75.612 524.271 70.5013 524.271 64.3164C524.271 58.1315 525.248 53.0208 527.201 48.9844C529.187 44.9154 531.872 41.9206 535.258 40C538.676 38.0794 542.582 37.1191 546.977 37.1191ZM546.977 39.1211C542.973 39.1211 539.799 41.1719 537.455 45.2734C535.144 49.375 533.988 55.7227 533.988 64.3164C533.988 72.8776 535.144 79.209 537.455 83.3105C539.799 87.3796 542.973 89.4141 546.977 89.4141C550.98 89.4141 554.138 87.3796 556.449 83.3105C558.793 79.209 559.965 72.8776 559.965 64.3164C559.965 55.7227 558.793 49.375 556.449 45.2734C554.138 41.1719 550.98 39.1211 546.977 39.1211ZM593.852 49.9121C594.6 47.8288 595.674 45.8105 597.074 43.8574C598.507 41.9043 600.199 40.293 602.152 39.0234C604.105 37.7539 606.173 37.1191 608.354 37.1191C610.111 37.1191 611.674 37.4772 613.041 38.1934C614.441 38.877 615.531 39.821 616.312 41.0254C617.094 42.2298 617.484 43.5482 617.484 44.9805C617.484 46.7383 616.964 48.2357 615.922 49.4727C614.88 50.6771 613.497 51.2793 611.771 51.2793C610.307 51.2793 609.053 50.8236 608.012 49.9121C606.97 48.9681 606.449 47.6986 606.449 46.1035C606.449 43.9225 607.589 42.1159 609.867 40.6836C609.411 40.0326 608.712 39.707 607.768 39.707C605.131 39.707 602.755 40.7161 600.639 42.7344C598.523 44.7526 596.863 47.2428 595.658 50.2051C594.454 53.1673 593.852 55.9342 593.852 58.5059V79.6973C593.852 82.7897 594.73 84.9382 596.488 86.1426C598.246 87.3145 600.899 87.9004 604.447 87.9004V90C596.244 89.7396 591.117 89.6094 589.066 89.6094C587.309 89.6094 583.37 89.7396 577.25 90V87.9004C579.138 87.9004 580.619 87.6888 581.693 87.2656C582.8 86.8424 583.598 86.11 584.086 85.0684C584.607 84.0267 584.867 82.5781 584.867 80.7227V49.4238C584.867 46.3314 584.298 44.0853 583.158 42.6855C582.051 41.2858 580.082 40.5859 577.25 40.5859V38.4863C579.333 38.6816 581.4 38.7793 583.451 38.7793C587.683 38.7793 591.15 38.3236 593.852 37.4121V49.9121ZM144.779 134.486C148.295 134.682 151.094 134.779 153.178 134.779C156.14 134.779 158.679 134.682 160.795 134.486V136.488C159.46 136.651 158.272 137.253 157.23 138.295C156.189 139.337 155.212 141.078 154.301 143.52L137.895 186.488L134.477 195.18C133.207 198.467 131.775 200.811 130.18 202.211C128.292 203.936 125.688 204.799 122.367 204.799C120.382 204.799 118.754 204.262 117.484 203.188C116.215 202.146 115.58 200.681 115.58 198.793C115.58 197.198 116.052 195.912 116.996 194.936C117.94 193.992 119.242 193.52 120.902 193.52C122.367 193.52 123.572 193.926 124.516 194.74C125.492 195.554 125.98 196.71 125.98 198.207C125.98 200.193 125.085 201.69 123.295 202.699C123.425 202.764 123.62 202.797 123.881 202.797C127.559 202.797 130.391 200.193 132.377 194.984L135.941 185.854L117.777 142.201C116.638 139.89 115.499 138.376 114.359 137.66C113.253 136.944 112.13 136.586 110.99 136.586V134.486C114.115 134.91 117.387 135.121 120.805 135.121C123.669 135.121 127.999 134.91 133.793 134.486V136.586C132.165 136.586 130.896 136.651 129.984 136.781C129.073 136.879 128.308 137.188 127.689 137.709C127.104 138.197 126.811 138.979 126.811 140.053C126.811 141.257 127.234 142.901 128.08 144.984L140.141 174.867L151.176 145.912C151.892 143.959 152.25 142.429 152.25 141.322C152.25 139.76 151.648 138.604 150.443 137.855C149.271 137.107 147.383 136.651 144.779 136.488V134.486ZM188.236 133.119C192.631 133.119 196.521 134.079 199.906 136C203.324 137.921 206.01 140.915 207.963 144.984C209.949 149.021 210.941 154.132 210.941 160.316C210.941 166.501 209.949 171.612 207.963 175.648C206.01 179.685 203.324 182.663 199.906 184.584C196.521 186.472 192.631 187.416 188.236 187.416C183.842 187.416 179.936 186.472 176.518 184.584C173.132 182.663 170.447 179.685 168.461 175.648C166.508 171.612 165.531 166.501 165.531 160.316C165.531 154.132 166.508 149.021 168.461 144.984C170.447 140.915 173.132 137.921 176.518 136C179.936 134.079 183.842 133.119 188.236 133.119ZM188.236 135.121C184.232 135.121 181.059 137.172 178.715 141.273C176.404 145.375 175.248 151.723 175.248 160.316C175.248 168.878 176.404 175.209 178.715 179.311C181.059 183.38 184.232 185.414 188.236 185.414C192.24 185.414 195.398 183.38 197.709 179.311C200.053 175.209 201.225 168.878 201.225 160.316C201.225 151.723 200.053 145.375 197.709 141.273C195.398 137.172 192.24 135.121 188.236 135.121ZM263.92 175.209C263.92 178.301 264.473 180.548 265.58 181.947C266.719 183.314 268.705 183.998 271.537 183.998V186.098C269.454 185.902 267.387 185.805 265.336 185.805C261.039 185.805 257.572 186.277 254.936 187.221V175.404C253.308 179.506 251.029 182.533 248.1 184.486C245.202 186.439 242.012 187.416 238.529 187.416C234.037 187.416 230.57 186.146 228.129 183.607C226.924 182.305 226.062 180.613 225.541 178.529C225.053 176.446 224.809 173.777 224.809 170.521V145.424C224.809 142.331 224.255 140.085 223.148 138.686C222.042 137.286 220.072 136.586 217.24 136.586V134.486C219.324 134.682 221.391 134.779 223.441 134.779C227.641 134.779 231.107 134.324 233.842 133.412V172.719C233.842 175.258 233.988 177.309 234.281 178.871C234.574 180.434 235.274 181.719 236.381 182.729C237.488 183.705 239.164 184.193 241.41 184.193C243.982 184.193 246.293 183.396 248.344 181.801C250.395 180.206 252.006 178.025 253.178 175.258C254.35 172.491 254.936 169.431 254.936 166.078V145.424C254.936 142.331 254.366 140.085 253.227 138.686C252.12 137.286 250.15 136.586 247.318 136.586V134.486C249.402 134.682 251.469 134.779 253.52 134.779C257.751 134.779 261.218 134.324 263.92 133.412V175.209ZM293.217 145.912C293.965 143.829 295.04 141.811 296.439 139.857C297.872 137.904 299.564 136.293 301.518 135.023C303.471 133.754 305.538 133.119 307.719 133.119C309.477 133.119 311.039 133.477 312.406 134.193C313.806 134.877 314.896 135.821 315.678 137.025C316.459 138.23 316.85 139.548 316.85 140.98C316.85 142.738 316.329 144.236 315.287 145.473C314.245 146.677 312.862 147.279 311.137 147.279C309.672 147.279 308.419 146.824 307.377 145.912C306.335 144.968 305.814 143.699 305.814 142.104C305.814 139.923 306.954 138.116 309.232 136.684C308.777 136.033 308.077 135.707 307.133 135.707C304.496 135.707 302.12 136.716 300.004 138.734C297.888 140.753 296.228 143.243 295.023 146.205C293.819 149.167 293.217 151.934 293.217 154.506V175.697C293.217 178.79 294.096 180.938 295.854 182.143C297.611 183.314 300.264 183.9 303.812 183.9V186C295.609 185.74 290.482 185.609 288.432 185.609C286.674 185.609 282.735 185.74 276.615 186V183.9C278.503 183.9 279.984 183.689 281.059 183.266C282.165 182.842 282.963 182.11 283.451 181.068C283.972 180.027 284.232 178.578 284.232 176.723V145.424C284.232 142.331 283.663 140.085 282.523 138.686C281.417 137.286 279.447 136.586 276.615 136.586V134.486C278.699 134.682 280.766 134.779 282.816 134.779C287.048 134.779 290.515 134.324 293.217 133.412V145.912ZM373.49 134.584V136.586H358.695V175.307C358.695 178.334 359.232 180.515 360.307 181.85C361.381 183.152 362.976 183.803 365.092 183.803C367.175 183.803 368.949 182.973 370.414 181.312C371.879 179.652 373.116 176.918 374.125 173.109L376.078 173.598C374.451 182.81 370.121 187.416 363.09 187.416C360.844 187.416 358.988 187.139 357.523 186.586C356.059 186.065 354.757 185.235 353.617 184.096C352.185 182.631 351.176 180.84 350.59 178.725C350.004 176.576 349.711 173.695 349.711 170.082V136.586H340.092V134.584H349.711V119.301C353.454 119.203 356.449 118.731 358.695 117.885V134.584H373.49ZM407.084 145.18C407.084 141.306 406.27 138.669 404.643 137.27C403.048 135.837 400.769 135.121 397.807 135.121C393.087 135.121 389.783 136.309 387.895 138.686C389.229 139.011 390.336 139.727 391.215 140.834C392.126 141.908 392.582 143.227 392.582 144.789C392.582 146.482 392.045 147.816 390.971 148.793C389.929 149.737 388.513 150.209 386.723 150.209C385.03 150.209 383.695 149.639 382.719 148.5C381.775 147.361 381.303 145.863 381.303 144.008C381.303 141.404 382.865 139.027 385.99 136.879C387.618 135.805 389.62 134.91 391.996 134.193C394.405 133.477 397.074 133.119 400.004 133.119C402.738 133.119 405.147 133.461 407.23 134.145C409.314 134.796 410.941 135.707 412.113 136.879C413.643 138.441 414.685 140.264 415.238 142.348C415.824 144.398 416.117 147.247 416.117 150.893V178.676C416.117 180.336 416.345 181.54 416.801 182.289C417.289 183.038 418.087 183.412 419.193 183.412C420.007 183.412 420.756 183.233 421.439 182.875C422.123 182.517 422.872 181.996 423.686 181.312L424.809 183.021C423.637 183.9 422.66 184.584 421.879 185.072C421.098 185.561 420.202 185.951 419.193 186.244C418.184 186.537 417.012 186.684 415.678 186.684C412.455 186.684 410.209 185.886 408.939 184.291C407.702 182.663 407.084 180.499 407.084 177.797C405.131 181.02 402.787 183.314 400.053 184.682C397.318 186.016 394.535 186.684 391.703 186.684C389.392 186.684 387.276 186.293 385.355 185.512C383.435 184.698 381.889 183.461 380.717 181.801C379.577 180.108 379.008 178.008 379.008 175.502C379.008 172.963 379.626 170.798 380.863 169.008C382.1 167.217 383.842 165.655 386.088 164.32C388.334 162.953 391.345 161.472 395.121 159.877C395.772 159.617 397.367 158.965 399.906 157.924C402.445 156.882 404.268 155.84 405.375 154.799C406.514 153.757 407.084 152.618 407.084 151.381V145.18ZM407.084 155.482C406.596 156.231 405.782 156.931 404.643 157.582C403.503 158.233 401.127 159.438 397.514 161.195C395.593 162.107 393.965 163.051 392.631 164.027C391.296 164.971 390.157 166.257 389.213 167.885C388.269 169.512 387.797 171.514 387.797 173.891C387.797 176.788 388.529 178.985 389.994 180.482C391.459 181.947 393.396 182.68 395.805 182.68C400.232 182.68 403.992 180.157 407.084 175.111V155.482ZM433.109 166.713C433.598 170.847 434.298 174.249 435.209 176.918C436.12 179.587 437.52 181.671 439.408 183.168C441.296 184.665 443.835 185.414 447.025 185.414C448.49 185.414 449.89 185.105 451.225 184.486C452.592 183.835 453.715 182.81 454.594 181.41C455.473 179.978 455.912 178.139 455.912 175.893C455.912 174.07 455.44 172.442 454.496 171.01C453.585 169.545 452.38 168.243 450.883 167.104C449.385 165.932 447.286 164.499 444.584 162.807C441.296 160.723 438.773 159.014 437.016 157.68C435.29 156.345 433.826 154.717 432.621 152.797C431.417 150.876 430.814 148.614 430.814 146.01C430.814 143.178 431.482 140.801 432.816 138.881C434.151 136.928 435.925 135.479 438.139 134.535C440.385 133.591 442.875 133.119 445.609 133.119C447.953 133.119 450.053 133.493 451.908 134.242C453.796 134.991 455.326 135.837 456.498 136.781C457.214 137.335 457.8 137.611 458.256 137.611C459.428 137.611 460.176 136.146 460.502 133.217H462.797C462.536 136.472 462.406 142.136 462.406 150.209H460.111C459.395 145.814 457.979 142.185 455.863 139.32C453.747 136.456 450.622 135.023 446.488 135.023C444.079 135.023 442.11 135.707 440.58 137.074C439.05 138.409 438.285 140.281 438.285 142.689C438.285 145.001 439.066 146.938 440.629 148.5C442.224 150.03 444.128 151.495 446.342 152.895C448.588 154.294 450.183 155.303 451.127 155.922C454.187 157.908 456.645 159.682 458.5 161.244C460.388 162.774 461.902 164.548 463.041 166.566C464.213 168.552 464.799 170.831 464.799 173.402C464.799 176.365 464.018 178.904 462.455 181.02C460.925 183.103 458.858 184.698 456.254 185.805C453.65 186.879 450.801 187.416 447.709 187.416C444.747 187.416 442.11 186.944 439.799 186C438.497 185.349 437.13 184.454 435.697 183.314C435.437 183.054 435.128 182.924 434.77 182.924C433.793 182.924 433.109 184.177 432.719 186.684H430.424C430.684 182.875 430.814 176.218 430.814 166.713H433.109ZM503.373 134.584V136.586H488.578V175.307C488.578 178.334 489.115 180.515 490.189 181.85C491.264 183.152 492.859 183.803 494.975 183.803C497.058 183.803 498.832 182.973 500.297 181.312C501.762 179.652 502.999 176.918 504.008 173.109L505.961 173.598C504.333 182.81 500.004 187.416 492.973 187.416C490.727 187.416 488.871 187.139 487.406 186.586C485.941 186.065 484.639 185.235 483.5 184.096C482.068 182.631 481.059 180.84 480.473 178.725C479.887 176.576 479.594 173.695 479.594 170.082V136.586H469.975V134.584H479.594V119.301C483.337 119.203 486.332 118.731 488.578 117.885V134.584H503.373ZM551.273 173.988C550.492 176.332 549.239 178.529 547.514 180.58C545.821 182.598 543.689 184.242 541.117 185.512C538.578 186.781 535.73 187.416 532.572 187.416C527.82 187.416 523.702 186.342 520.219 184.193C516.768 182.012 514.132 178.969 512.309 175.062C510.486 171.124 509.574 166.599 509.574 161.488C509.574 155.694 510.502 150.665 512.357 146.4C514.213 142.136 516.833 138.865 520.219 136.586C523.637 134.275 527.624 133.119 532.182 133.119C538.171 133.119 542.777 134.942 546 138.588C549.255 142.201 550.883 147.702 550.883 155.092H519.633C519.405 156.817 519.291 158.949 519.291 161.488C519.291 165.883 520.007 169.724 521.439 173.012C522.904 176.299 524.809 178.822 527.152 180.58C529.496 182.338 531.97 183.217 534.574 183.217C541.28 183.217 546.179 179.88 549.271 173.207L551.273 173.988ZM541.264 153.188C541.394 149.867 541.117 146.824 540.434 144.057C539.75 141.29 538.676 139.092 537.211 137.465C535.746 135.837 533.939 135.023 531.791 135.023C529.74 135.023 527.852 135.691 526.127 137.025C524.402 138.327 522.937 140.346 521.732 143.08C520.561 145.782 519.812 149.151 519.486 153.188H541.264Z" fill="#2C2F24"/>
<path d="M76.4937 247V233H80.7937C83.2603 233 85.0737 233.627 86.2337 234.88C87.407 236.133 87.9937 237.853 87.9937 240.04C87.9937 242.187 87.407 243.887 86.2337 245.14C85.0737 246.38 83.2603 247 80.7937 247H76.4937ZM78.1737 245.6H80.7537C82.1137 245.6 83.1937 245.38 83.9937 244.94C84.807 244.487 85.387 243.847 85.7337 243.02C86.0803 242.18 86.2537 241.187 86.2537 240.04C86.2537 238.867 86.0803 237.86 85.7337 237.02C85.387 236.18 84.807 235.533 83.9937 235.08C83.1937 234.627 82.1137 234.4 80.7537 234.4H78.1737V245.6ZM91.3395 234.88C91.0061 234.88 90.7261 234.773 90.4995 234.56C90.2861 234.333 90.1795 234.053 90.1795 233.72C90.1795 233.4 90.2861 233.133 90.4995 232.92C90.7261 232.707 91.0061 232.6 91.3395 232.6C91.6595 232.6 91.9328 232.707 92.1595 232.92C92.3861 233.133 92.4995 233.4 92.4995 233.72C92.4995 234.053 92.3861 234.333 92.1595 234.56C91.9328 234.773 91.6595 234.88 91.3395 234.88ZM90.4995 247V237.08H92.1795V247H90.4995ZM98.9046 247.24C97.7179 247.24 96.7313 246.94 95.9446 246.34C95.1579 245.74 94.6979 244.927 94.5646 243.9H96.2846C96.3913 244.42 96.6646 244.873 97.1046 245.26C97.5579 245.633 98.1646 245.82 98.9246 245.82C99.6313 245.82 100.151 245.673 100.485 245.38C100.818 245.073 100.985 244.713 100.985 244.3C100.985 243.7 100.765 243.3 100.325 243.1C99.8979 242.9 99.2913 242.72 98.5046 242.56C97.9713 242.453 97.4379 242.3 96.9046 242.1C96.3713 241.9 95.9246 241.62 95.5646 241.26C95.2046 240.887 95.0246 240.4 95.0246 239.8C95.0246 238.933 95.3446 238.227 95.9846 237.68C96.6379 237.12 97.5179 236.84 98.6246 236.84C99.6779 236.84 100.538 237.107 101.205 237.64C101.885 238.16 102.278 238.907 102.385 239.88H100.725C100.658 239.373 100.438 238.98 100.065 238.7C99.7046 238.407 99.2179 238.26 98.6046 238.26C98.0046 238.26 97.5379 238.387 97.2046 238.64C96.8846 238.893 96.7246 239.227 96.7246 239.64C96.7246 240.04 96.9313 240.353 97.3446 240.58C97.7713 240.807 98.3446 241 99.0646 241.16C99.6779 241.293 100.258 241.46 100.805 241.66C101.365 241.847 101.818 242.133 102.165 242.52C102.525 242.893 102.705 243.44 102.705 244.16C102.718 245.053 102.378 245.793 101.685 246.38C101.005 246.953 100.078 247.24 98.9046 247.24ZM109.665 247.24C108.718 247.24 107.865 247.027 107.105 246.6C106.358 246.16 105.765 245.553 105.325 244.78C104.898 243.993 104.685 243.08 104.685 242.04C104.685 241 104.898 240.093 105.325 239.32C105.765 238.533 106.358 237.927 107.105 237.5C107.865 237.06 108.718 236.84 109.665 236.84C110.838 236.84 111.825 237.147 112.625 237.76C113.438 238.373 113.951 239.193 114.165 240.22H112.445C112.311 239.607 111.985 239.133 111.465 238.8C110.945 238.453 110.338 238.28 109.645 238.28C109.085 238.28 108.558 238.42 108.065 238.7C107.571 238.98 107.171 239.4 106.865 239.96C106.558 240.52 106.405 241.213 106.405 242.04C106.405 242.867 106.558 243.56 106.865 244.12C107.171 244.68 107.571 245.107 108.065 245.4C108.558 245.68 109.085 245.82 109.645 245.82C110.338 245.82 110.945 245.653 111.465 245.32C111.985 244.973 112.311 244.487 112.445 243.86H114.165C113.965 244.86 113.458 245.673 112.645 246.3C111.831 246.927 110.838 247.24 109.665 247.24ZM121.031 247.24C120.098 247.24 119.258 247.027 118.511 246.6C117.764 246.173 117.171 245.573 116.731 244.8C116.304 244.013 116.091 243.093 116.091 242.04C116.091 240.987 116.311 240.073 116.751 239.3C117.191 238.513 117.784 237.907 118.531 237.48C119.291 237.053 120.138 236.84 121.071 236.84C122.004 236.84 122.844 237.053 123.591 237.48C124.338 237.907 124.924 238.513 125.351 239.3C125.791 240.073 126.011 240.987 126.011 242.04C126.011 243.093 125.791 244.013 125.351 244.8C124.911 245.573 124.311 246.173 123.551 246.6C122.804 247.027 121.964 247.24 121.031 247.24ZM121.031 245.8C121.604 245.8 122.138 245.66 122.631 245.38C123.124 245.1 123.524 244.68 123.831 244.12C124.138 243.56 124.291 242.867 124.291 242.04C124.291 241.213 124.138 240.52 123.831 239.96C123.538 239.4 123.144 238.98 122.651 238.7C122.158 238.42 121.631 238.28 121.071 238.28C120.498 238.28 119.964 238.42 119.471 238.7C118.978 238.98 118.578 239.4 118.271 239.96C117.964 240.52 117.811 241.213 117.811 242.04C117.811 242.867 117.964 243.56 118.271 244.12C118.578 244.68 118.971 245.1 119.451 245.38C119.944 245.66 120.471 245.8 121.031 245.8ZM130.699 247L126.939 237.08H128.699L131.679 245.38L134.679 237.08H136.399L132.639 247H130.699ZM142.221 247.24C141.274 247.24 140.434 247.027 139.701 246.6C138.968 246.16 138.388 245.553 137.961 244.78C137.548 244.007 137.341 243.093 137.341 242.04C137.341 241 137.548 240.093 137.961 239.32C138.374 238.533 138.948 237.927 139.681 237.5C140.428 237.06 141.288 236.84 142.261 236.84C143.221 236.84 144.048 237.06 144.741 237.5C145.448 237.927 145.988 238.493 146.361 239.2C146.734 239.907 146.921 240.667 146.921 241.48C146.921 241.627 146.914 241.773 146.901 241.92C146.901 242.067 146.901 242.233 146.901 242.42H139.001C139.041 243.18 139.214 243.813 139.521 244.32C139.841 244.813 140.234 245.187 140.701 245.44C141.181 245.693 141.688 245.82 142.221 245.82C142.914 245.82 143.494 245.66 143.961 245.34C144.428 245.02 144.768 244.587 144.981 244.04H146.641C146.374 244.96 145.861 245.727 145.101 246.34C144.354 246.94 143.394 247.24 142.221 247.24ZM142.221 238.26C141.421 238.26 140.708 238.507 140.081 239C139.468 239.48 139.114 240.187 139.021 241.12H145.261C145.221 240.227 144.914 239.527 144.341 239.02C143.768 238.513 143.061 238.26 142.221 238.26ZM149.148 247V237.08H150.668L150.808 238.98C151.114 238.327 151.581 237.807 152.208 237.42C152.834 237.033 153.608 236.84 154.528 236.84V238.6H154.068C153.481 238.6 152.941 238.707 152.448 238.92C151.954 239.12 151.561 239.467 151.268 239.96C150.974 240.453 150.828 241.133 150.828 242V247H149.148ZM166.206 247.24C165.22 247.24 164.353 247.013 163.606 246.56C162.873 246.107 162.3 245.487 161.886 244.7C161.486 243.913 161.286 243.02 161.286 242.02C161.286 241.02 161.493 240.133 161.906 239.36C162.32 238.573 162.893 237.96 163.626 237.52C164.36 237.067 165.226 236.84 166.226 236.84C167.04 236.84 167.76 237.007 168.386 237.34C169.013 237.673 169.5 238.14 169.846 238.74V232.6H171.526V247H170.006L169.846 245.36C169.526 245.84 169.066 246.273 168.466 246.66C167.866 247.047 167.113 247.24 166.206 247.24ZM166.386 245.78C167.053 245.78 167.64 245.627 168.146 245.32C168.666 245 169.066 244.56 169.346 244C169.64 243.44 169.786 242.787 169.786 242.04C169.786 241.293 169.64 240.64 169.346 240.08C169.066 239.52 168.666 239.087 168.146 238.78C167.64 238.46 167.053 238.3 166.386 238.3C165.733 238.3 165.146 238.46 164.626 238.78C164.12 239.087 163.72 239.52 163.426 240.08C163.146 240.64 163.006 241.293 163.006 242.04C163.006 242.787 163.146 243.44 163.426 244C163.72 244.56 164.12 245 164.626 245.32C165.146 245.627 165.733 245.78 166.386 245.78ZM178.725 247.24C177.778 247.24 176.938 247.027 176.205 246.6C175.471 246.16 174.891 245.553 174.465 244.78C174.051 244.007 173.845 243.093 173.845 242.04C173.845 241 174.051 240.093 174.465 239.32C174.878 238.533 175.451 237.927 176.185 237.5C176.931 237.06 177.791 236.84 178.765 236.84C179.725 236.84 180.551 237.06 181.245 237.5C181.951 237.927 182.491 238.493 182.865 239.2C183.238 239.907 183.425 240.667 183.425 241.48C183.425 241.627 183.418 241.773 183.405 241.92C183.405 242.067 183.405 242.233 183.405 242.42H175.505C175.545 243.18 175.718 243.813 176.025 244.32C176.345 244.813 176.738 245.187 177.205 245.44C177.685 245.693 178.191 245.82 178.725 245.82C179.418 245.82 179.998 245.66 180.465 245.34C180.931 245.02 181.271 244.587 181.485 244.04H183.145C182.878 244.96 182.365 245.727 181.605 246.34C180.858 246.94 179.898 247.24 178.725 247.24ZM178.725 238.26C177.925 238.26 177.211 238.507 176.585 239C175.971 239.48 175.618 240.187 175.525 241.12H181.765C181.725 240.227 181.418 239.527 180.845 239.02C180.271 238.513 179.565 238.26 178.725 238.26ZM185.651 247V232.6H187.331V247H185.651ZM194.545 247.24C193.598 247.24 192.758 247.027 192.025 246.6C191.292 246.16 190.712 245.553 190.285 244.78C189.872 244.007 189.665 243.093 189.665 242.04C189.665 241 189.872 240.093 190.285 239.32C190.698 238.533 191.272 237.927 192.005 237.5C192.752 237.06 193.612 236.84 194.585 236.84C195.545 236.84 196.372 237.06 197.065 237.5C197.772 237.927 198.312 238.493 198.685 239.2C199.058 239.907 199.245 240.667 199.245 241.48C199.245 241.627 199.238 241.773 199.225 241.92C199.225 242.067 199.225 242.233 199.225 242.42H191.325C191.365 243.18 191.538 243.813 191.845 244.32C192.165 244.813 192.558 245.187 193.025 245.44C193.505 245.693 194.012 245.82 194.545 245.82C195.238 245.82 195.818 245.66 196.285 245.34C196.752 245.02 197.092 244.587 197.305 244.04H198.965C198.698 244.96 198.185 245.727 197.425 246.34C196.678 246.94 195.718 247.24 194.545 247.24ZM194.545 238.26C193.745 238.26 193.032 238.507 192.405 239C191.792 239.48 191.438 240.187 191.345 241.12H197.585C197.545 240.227 197.238 239.527 196.665 239.02C196.092 238.513 195.385 238.26 194.545 238.26ZM206.032 247.24C205.085 247.24 204.232 247.027 203.472 246.6C202.725 246.16 202.132 245.553 201.692 244.78C201.265 243.993 201.052 243.08 201.052 242.04C201.052 241 201.265 240.093 201.692 239.32C202.132 238.533 202.725 237.927 203.472 237.5C204.232 237.06 205.085 236.84 206.032 236.84C207.205 236.84 208.192 237.147 208.992 237.76C209.805 238.373 210.318 239.193 210.532 240.22H208.812C208.678 239.607 208.352 239.133 207.832 238.8C207.312 238.453 206.705 238.28 206.012 238.28C205.452 238.28 204.925 238.42 204.432 238.7C203.938 238.98 203.538 239.4 203.232 239.96C202.925 240.52 202.772 241.213 202.772 242.04C202.772 242.867 202.925 243.56 203.232 244.12C203.538 244.68 203.938 245.107 204.432 245.4C204.925 245.68 205.452 245.82 206.012 245.82C206.705 245.82 207.312 245.653 207.832 245.32C208.352 244.973 208.678 244.487 208.812 243.86H210.532C210.332 244.86 209.825 245.673 209.012 246.3C208.198 246.927 207.205 247.24 206.032 247.24ZM216.525 247C215.618 247 214.905 246.78 214.385 246.34C213.865 245.9 213.605 245.107 213.605 243.96V238.5H211.885V237.08H213.605L213.825 234.7H215.285V237.08H218.205V238.5H215.285V243.96C215.285 244.587 215.411 245.013 215.665 245.24C215.918 245.453 216.365 245.56 217.005 245.56H218.045V247H216.525ZM223.639 247.24C222.812 247.24 222.126 247.1 221.579 246.82C221.032 246.54 220.626 246.167 220.359 245.7C220.092 245.233 219.959 244.727 219.959 244.18C219.959 243.167 220.346 242.387 221.119 241.84C221.892 241.293 222.946 241.02 224.279 241.02H226.959V240.9C226.959 240.033 226.732 239.38 226.279 238.94C225.826 238.487 225.219 238.26 224.459 238.26C223.806 238.26 223.239 238.427 222.759 238.76C222.292 239.08 221.999 239.553 221.879 240.18H220.159C220.226 239.46 220.466 238.853 220.879 238.36C221.306 237.867 221.832 237.493 222.459 237.24C223.086 236.973 223.752 236.84 224.459 236.84C225.846 236.84 226.886 237.213 227.579 237.96C228.286 238.693 228.639 239.673 228.639 240.9V247H227.139L227.039 245.22C226.759 245.78 226.346 246.26 225.799 246.66C225.266 247.047 224.546 247.24 223.639 247.24ZM223.899 245.82C224.539 245.82 225.086 245.653 225.539 245.32C226.006 244.987 226.359 244.553 226.599 244.02C226.839 243.487 226.959 242.927 226.959 242.34V242.32H224.419C223.432 242.32 222.732 242.493 222.319 242.84C221.919 243.173 221.719 243.593 221.719 244.1C221.719 244.62 221.906 245.04 222.279 245.36C222.666 245.667 223.206 245.82 223.899 245.82ZM236.459 247.24C235.646 247.24 234.919 247.073 234.279 246.74C233.653 246.407 233.173 245.94 232.839 245.34L232.679 247H231.159V232.6H232.839V238.72C233.159 238.24 233.613 237.807 234.199 237.42C234.799 237.033 235.559 236.84 236.479 236.84C237.466 236.84 238.326 237.067 239.059 237.52C239.793 237.973 240.359 238.593 240.759 239.38C241.173 240.167 241.379 241.06 241.379 242.06C241.379 243.06 241.173 243.953 240.759 244.74C240.359 245.513 239.786 246.127 239.039 246.58C238.306 247.02 237.446 247.24 236.459 247.24ZM236.279 245.78C236.946 245.78 237.533 245.627 238.039 245.32C238.546 245 238.946 244.56 239.239 244C239.533 243.44 239.679 242.787 239.679 242.04C239.679 241.293 239.533 240.64 239.239 240.08C238.946 239.52 238.546 239.087 238.039 238.78C237.533 238.46 236.946 238.3 236.279 238.3C235.613 238.3 235.026 238.46 234.519 238.78C234.013 239.087 233.613 239.52 233.319 240.08C233.026 240.64 232.879 241.293 232.879 242.04C232.879 242.787 233.026 243.44 233.319 244C233.613 244.56 234.013 245 234.519 245.32C235.026 245.627 235.613 245.78 236.279 245.78ZM243.718 247V232.6H245.398V247H243.718ZM252.611 247.24C251.665 247.24 250.825 247.027 250.091 246.6C249.358 246.16 248.778 245.553 248.351 244.78C247.938 244.007 247.731 243.093 247.731 242.04C247.731 241 247.938 240.093 248.351 239.32C248.765 238.533 249.338 237.927 250.071 237.5C250.818 237.06 251.678 236.84 252.651 236.84C253.611 236.84 254.438 237.06 255.131 237.5C255.838 237.927 256.378 238.493 256.751 239.2C257.125 239.907 257.311 240.667 257.311 241.48C257.311 241.627 257.305 241.773 257.291 241.92C257.291 242.067 257.291 242.233 257.291 242.42H249.391C249.431 243.18 249.605 243.813 249.911 244.32C250.231 244.813 250.625 245.187 251.091 245.44C251.571 245.693 252.078 245.82 252.611 245.82C253.305 245.82 253.885 245.66 254.351 245.34C254.818 245.02 255.158 244.587 255.371 244.04H257.031C256.765 244.96 256.251 245.727 255.491 246.34C254.745 246.94 253.785 247.24 252.611 247.24ZM252.611 238.26C251.811 238.26 251.098 238.507 250.471 239C249.858 239.48 249.505 240.187 249.411 241.12H255.651C255.611 240.227 255.305 239.527 254.731 239.02C254.158 238.513 253.451 238.26 252.611 238.26ZM269.391 247.24C268.445 247.24 267.591 247.027 266.831 246.6C266.085 246.16 265.491 245.553 265.051 244.78C264.625 243.993 264.411 243.08 264.411 242.04C264.411 241 264.625 240.093 265.051 239.32C265.491 238.533 266.085 237.927 266.831 237.5C267.591 237.06 268.445 236.84 269.391 236.84C270.565 236.84 271.551 237.147 272.351 237.76C273.165 238.373 273.678 239.193 273.891 240.22H272.171C272.038 239.607 271.711 239.133 271.191 238.8C270.671 238.453 270.065 238.28 269.371 238.28C268.811 238.28 268.285 238.42 267.791 238.7C267.298 238.98 266.898 239.4 266.591 239.96C266.285 240.52 266.131 241.213 266.131 242.04C266.131 242.867 266.285 243.56 266.591 244.12C266.898 244.68 267.298 245.107 267.791 245.4C268.285 245.68 268.811 245.82 269.371 245.82C270.065 245.82 270.671 245.653 271.191 245.32C271.711 244.973 272.038 244.487 272.171 243.86H273.891C273.691 244.86 273.185 245.673 272.371 246.3C271.558 246.927 270.565 247.24 269.391 247.24ZM279.857 247.24C278.684 247.24 277.751 246.887 277.057 246.18C276.364 245.46 276.017 244.36 276.017 242.88V237.08H277.697V242.7C277.697 244.767 278.544 245.8 280.237 245.8C281.104 245.8 281.817 245.493 282.377 244.88C282.951 244.253 283.237 243.367 283.237 242.22V237.08H284.917V247H283.397L283.277 245.22C282.971 245.847 282.511 246.34 281.897 246.7C281.297 247.06 280.617 247.24 279.857 247.24ZM288.703 234.88C288.369 234.88 288.089 234.773 287.863 234.56C287.649 234.333 287.543 234.053 287.543 233.72C287.543 233.4 287.649 233.133 287.863 232.92C288.089 232.707 288.369 232.6 288.703 232.6C289.023 232.6 289.296 232.707 289.523 232.92C289.749 233.133 289.863 233.4 289.863 233.72C289.863 234.053 289.749 234.333 289.523 234.56C289.296 234.773 289.023 234.88 288.703 234.88ZM287.863 247V237.08H289.543V247H287.863ZM296.268 247.24C295.081 247.24 294.095 246.94 293.308 246.34C292.521 245.74 292.061 244.927 291.928 243.9H293.648C293.755 244.42 294.028 244.873 294.468 245.26C294.921 245.633 295.528 245.82 296.288 245.82C296.995 245.82 297.515 245.673 297.848 245.38C298.181 245.073 298.348 244.713 298.348 244.3C298.348 243.7 298.128 243.3 297.688 243.1C297.261 242.9 296.655 242.72 295.868 242.56C295.335 242.453 294.801 242.3 294.268 242.1C293.735 241.9 293.288 241.62 292.928 241.26C292.568 240.887 292.388 240.4 292.388 239.8C292.388 238.933 292.708 238.227 293.348 237.68C294.001 237.12 294.881 236.84 295.988 236.84C297.041 236.84 297.901 237.107 298.568 237.64C299.248 238.16 299.641 238.907 299.748 239.88H298.088C298.021 239.373 297.801 238.98 297.428 238.7C297.068 238.407 296.581 238.26 295.968 238.26C295.368 238.26 294.901 238.387 294.568 238.64C294.248 238.893 294.088 239.227 294.088 239.64C294.088 240.04 294.295 240.353 294.708 240.58C295.135 240.807 295.708 241 296.428 241.16C297.041 241.293 297.621 241.46 298.168 241.66C298.728 241.847 299.181 242.133 299.528 242.52C299.888 242.893 300.068 243.44 300.068 244.16C300.081 245.053 299.741 245.793 299.048 246.38C298.368 246.953 297.441 247.24 296.268 247.24ZM303.488 234.88C303.155 234.88 302.875 234.773 302.648 234.56C302.435 234.333 302.328 234.053 302.328 233.72C302.328 233.4 302.435 233.133 302.648 232.92C302.875 232.707 303.155 232.6 303.488 232.6C303.808 232.6 304.081 232.707 304.308 232.92C304.535 233.133 304.648 233.4 304.648 233.72C304.648 234.053 304.535 234.333 304.308 234.56C304.081 234.773 303.808 234.88 303.488 234.88ZM302.648 247V237.08H304.328V247H302.648ZM307.253 247V237.08H308.773L308.873 238.86C309.193 238.233 309.653 237.74 310.253 237.38C310.853 237.02 311.533 236.84 312.293 236.84C313.466 236.84 314.4 237.2 315.093 237.92C315.8 238.627 316.153 239.72 316.153 241.2V247H314.473V241.38C314.473 239.313 313.62 238.28 311.913 238.28C311.06 238.28 310.346 238.593 309.773 239.22C309.213 239.833 308.933 240.713 308.933 241.86V247H307.253ZM323.158 247.24C322.212 247.24 321.372 247.027 320.638 246.6C319.905 246.16 319.325 245.553 318.898 244.78C318.485 244.007 318.278 243.093 318.278 242.04C318.278 241 318.485 240.093 318.898 239.32C319.312 238.533 319.885 237.927 320.618 237.5C321.365 237.06 322.225 236.84 323.198 236.84C324.158 236.84 324.985 237.06 325.678 237.5C326.385 237.927 326.925 238.493 327.298 239.2C327.672 239.907 327.858 240.667 327.858 241.48C327.858 241.627 327.852 241.773 327.838 241.92C327.838 242.067 327.838 242.233 327.838 242.42H319.938C319.978 243.18 320.152 243.813 320.458 244.32C320.778 244.813 321.172 245.187 321.638 245.44C322.118 245.693 322.625 245.82 323.158 245.82C323.852 245.82 324.432 245.66 324.898 245.34C325.365 245.02 325.705 244.587 325.918 244.04H327.578C327.312 244.96 326.798 245.727 326.038 246.34C325.292 246.94 324.332 247.24 323.158 247.24ZM323.158 238.26C322.358 238.26 321.645 238.507 321.018 239C320.405 239.48 320.052 240.187 319.958 241.12H326.198C326.158 240.227 325.852 239.527 325.278 239.02C324.705 238.513 323.998 238.26 323.158 238.26ZM338.678 247.24C337.851 247.24 337.165 247.1 336.618 246.82C336.071 246.54 335.665 246.167 335.398 245.7C335.131 245.233 334.998 244.727 334.998 244.18C334.998 243.167 335.385 242.387 336.158 241.84C336.931 241.293 337.985 241.02 339.318 241.02H341.998V240.9C341.998 240.033 341.771 239.38 341.318 238.94C340.865 238.487 340.258 238.26 339.498 238.26C338.845 238.26 338.278 238.427 337.798 238.76C337.331 239.08 337.038 239.553 336.918 240.18H335.198C335.265 239.46 335.505 238.853 335.918 238.36C336.345 237.867 336.871 237.493 337.498 237.24C338.125 236.973 338.791 236.84 339.498 236.84C340.885 236.84 341.925 237.213 342.618 237.96C343.325 238.693 343.678 239.673 343.678 240.9V247H342.178L342.078 245.22C341.798 245.78 341.385 246.26 340.838 246.66C340.305 247.047 339.585 247.24 338.678 247.24ZM338.938 245.82C339.578 245.82 340.125 245.653 340.578 245.32C341.045 244.987 341.398 244.553 341.638 244.02C341.878 243.487 341.998 242.927 341.998 242.34V242.32H339.458C338.471 242.32 337.771 242.493 337.358 242.84C336.958 243.173 336.758 243.593 336.758 244.1C336.758 244.62 336.945 245.04 337.318 245.36C337.705 245.667 338.245 245.82 338.938 245.82ZM346.198 247V237.08H347.718L347.818 238.86C348.138 238.233 348.598 237.74 349.198 237.38C349.798 237.02 350.478 236.84 351.238 236.84C352.412 236.84 353.345 237.2 354.038 237.92C354.745 238.627 355.098 239.72 355.098 241.2V247H353.418V241.38C353.418 239.313 352.565 238.28 350.858 238.28C350.005 238.28 349.292 238.593 348.718 239.22C348.158 239.833 347.878 240.713 347.878 241.86V247H346.198ZM362.144 247.24C361.157 247.24 360.29 247.013 359.544 246.56C358.81 246.107 358.237 245.487 357.824 244.7C357.424 243.913 357.224 243.02 357.224 242.02C357.224 241.02 357.43 240.133 357.844 239.36C358.257 238.573 358.83 237.96 359.564 237.52C360.297 237.067 361.164 236.84 362.164 236.84C362.977 236.84 363.697 237.007 364.324 237.34C364.95 237.673 365.437 238.14 365.784 238.74V232.6H367.464V247H365.944L365.784 245.36C365.464 245.84 365.004 246.273 364.404 246.66C363.804 247.047 363.05 247.24 362.144 247.24ZM362.324 245.78C362.99 245.78 363.577 245.627 364.084 245.32C364.604 245 365.004 244.56 365.284 244C365.577 243.44 365.724 242.787 365.724 242.04C365.724 241.293 365.577 240.64 365.284 240.08C365.004 239.52 364.604 239.087 364.084 238.78C363.577 238.46 362.99 238.3 362.324 238.3C361.67 238.3 361.084 238.46 360.564 238.78C360.057 239.087 359.657 239.52 359.364 240.08C359.084 240.64 358.944 241.293 358.944 242.04C358.944 242.787 359.084 243.44 359.364 244C359.657 244.56 360.057 245 360.564 245.32C361.084 245.627 361.67 245.78 362.324 245.78ZM379.115 247.24C377.942 247.24 377.009 246.887 376.315 246.18C375.622 245.46 375.275 244.36 375.275 242.88V237.08H376.955V242.7C376.955 244.767 377.802 245.8 379.495 245.8C380.362 245.8 381.075 245.493 381.635 244.88C382.209 244.253 382.495 243.367 382.495 242.22V237.08H384.175V247H382.655L382.535 245.22C382.229 245.847 381.769 246.34 381.155 246.7C380.555 247.06 379.875 247.24 379.115 247.24ZM386.941 247V237.08H388.461L388.561 238.86C388.881 238.233 389.341 237.74 389.941 237.38C390.541 237.02 391.221 236.84 391.981 236.84C393.154 236.84 394.087 237.2 394.781 237.92C395.487 238.627 395.841 239.72 395.841 241.2V247H394.161V241.38C394.161 239.313 393.307 238.28 391.601 238.28C390.747 238.28 390.034 238.593 389.461 239.22C388.901 239.833 388.621 240.713 388.621 241.86V247H386.941ZM398.926 247V238.5H397.426V237.08H398.926V235.36C398.926 234.4 399.166 233.7 399.646 233.26C400.126 232.82 400.826 232.6 401.746 232.6H402.746V234.04H402.006C401.499 234.04 401.139 234.147 400.926 234.36C400.713 234.56 400.606 234.907 400.606 235.4V237.08H403.046V238.5H400.606V247H398.926ZM409.175 247.24C408.242 247.24 407.402 247.027 406.655 246.6C405.909 246.173 405.315 245.573 404.875 244.8C404.449 244.013 404.235 243.093 404.235 242.04C404.235 240.987 404.455 240.073 404.895 239.3C405.335 238.513 405.929 237.907 406.675 237.48C407.435 237.053 408.282 236.84 409.215 236.84C410.149 236.84 410.989 237.053 411.735 237.48C412.482 237.907 413.069 238.513 413.495 239.3C413.935 240.073 414.155 240.987 414.155 242.04C414.155 243.093 413.935 244.013 413.495 244.8C413.055 245.573 412.455 246.173 411.695 246.6C410.949 247.027 410.109 247.24 409.175 247.24ZM409.175 245.8C409.749 245.8 410.282 245.66 410.775 245.38C411.269 245.1 411.669 244.68 411.975 244.12C412.282 243.56 412.435 242.867 412.435 242.04C412.435 241.213 412.282 240.52 411.975 239.96C411.682 239.4 411.289 238.98 410.795 238.7C410.302 238.42 409.775 238.28 409.215 238.28C408.642 238.28 408.109 238.42 407.615 238.7C407.122 238.98 406.722 239.4 406.415 239.96C406.109 240.52 405.955 241.213 405.955 242.04C405.955 242.867 406.109 243.56 406.415 244.12C406.722 244.68 407.115 245.1 407.595 245.38C408.089 245.66 408.615 245.8 409.175 245.8ZM416.491 247V237.08H418.011L418.151 238.98C418.458 238.327 418.925 237.807 419.551 237.42C420.178 237.033 420.951 236.84 421.871 236.84V238.6H421.411C420.825 238.6 420.285 238.707 419.791 238.92C419.298 239.12 418.905 239.467 418.611 239.96C418.318 240.453 418.171 241.133 418.171 242V247H416.491ZM427.443 243.88C426.883 243.88 426.369 243.807 425.903 243.66L424.903 244.6C425.049 244.707 425.229 244.8 425.443 244.88C425.669 244.947 425.989 245.013 426.403 245.08C426.816 245.133 427.396 245.193 428.143 245.26C429.476 245.353 430.429 245.66 431.003 246.18C431.576 246.7 431.863 247.38 431.863 248.22C431.863 248.793 431.703 249.34 431.383 249.86C431.076 250.38 430.596 250.807 429.943 251.14C429.303 251.473 428.476 251.64 427.463 251.64C426.569 251.64 425.776 251.52 425.083 251.28C424.389 251.053 423.849 250.7 423.463 250.22C423.076 249.753 422.883 249.16 422.883 248.44C422.883 248.067 422.983 247.66 423.183 247.22C423.383 246.793 423.756 246.387 424.303 246C424.009 245.88 423.756 245.753 423.543 245.62C423.343 245.473 423.156 245.313 422.983 245.14V244.68L424.683 243C423.896 242.333 423.503 241.453 423.503 240.36C423.503 239.707 423.656 239.113 423.963 238.58C424.269 238.047 424.716 237.627 425.303 237.32C425.889 237 426.603 236.84 427.443 236.84C428.016 236.84 428.536 236.92 429.003 237.08H432.663V238.34L430.803 238.42C431.189 238.98 431.383 239.627 431.383 240.36C431.383 241.013 431.223 241.607 430.903 242.14C430.596 242.673 430.149 243.1 429.563 243.42C428.989 243.727 428.283 243.88 427.443 243.88ZM427.443 242.5C428.149 242.5 428.709 242.32 429.123 241.96C429.549 241.587 429.763 241.053 429.763 240.36C429.763 239.68 429.549 239.16 429.123 238.8C428.709 238.427 428.149 238.24 427.443 238.24C426.723 238.24 426.149 238.427 425.723 238.8C425.309 239.16 425.103 239.68 425.103 240.36C425.103 241.053 425.309 241.587 425.723 241.96C426.149 242.32 426.723 242.5 427.443 242.5ZM424.523 248.28C424.523 248.947 424.803 249.44 425.363 249.76C425.923 250.093 426.623 250.26 427.463 250.26C428.289 250.26 428.949 250.08 429.443 249.72C429.949 249.36 430.203 248.88 430.203 248.28C430.203 247.853 430.029 247.48 429.683 247.16C429.336 246.853 428.696 246.673 427.763 246.62C427.029 246.567 426.396 246.5 425.863 246.42C425.316 246.713 424.956 247.027 424.783 247.36C424.609 247.707 424.523 248.013 424.523 248.28ZM438.627 247.24C437.68 247.24 436.84 247.027 436.107 246.6C435.374 246.16 434.794 245.553 434.367 244.78C433.954 244.007 433.747 243.093 433.747 242.04C433.747 241 433.954 240.093 434.367 239.32C434.78 238.533 435.354 237.927 436.087 237.5C436.834 237.06 437.694 236.84 438.667 236.84C439.627 236.84 440.454 237.06 441.147 237.5C441.854 237.927 442.394 238.493 442.767 239.2C443.14 239.907 443.327 240.667 443.327 241.48C443.327 241.627 443.32 241.773 443.307 241.92C443.307 242.067 443.307 242.233 443.307 242.42H435.407C435.447 243.18 435.62 243.813 435.927 244.32C436.247 244.813 436.64 245.187 437.107 245.44C437.587 245.693 438.094 245.82 438.627 245.82C439.32 245.82 439.9 245.66 440.367 245.34C440.834 245.02 441.174 244.587 441.387 244.04H443.047C442.78 244.96 442.267 245.727 441.507 246.34C440.76 246.94 439.8 247.24 438.627 247.24ZM438.627 238.26C437.827 238.26 437.114 238.507 436.487 239C435.874 239.48 435.52 240.187 435.427 241.12H441.667C441.627 240.227 441.32 239.527 440.747 239.02C440.174 238.513 439.467 238.26 438.627 238.26ZM449.142 247C448.235 247 447.522 246.78 447.002 246.34C446.482 245.9 446.222 245.107 446.222 243.96V238.5H444.502V237.08H446.222L446.442 234.7H447.902V237.08H450.822V238.5H447.902V243.96C447.902 244.587 448.028 245.013 448.282 245.24C448.535 245.453 448.982 245.56 449.622 245.56H450.662V247H449.142ZM456.876 247C455.97 247 455.256 246.78 454.736 246.34C454.216 245.9 453.956 245.107 453.956 243.96V238.5H452.236V237.08H453.956L454.176 234.7H455.636V237.08H458.556V238.5H455.636V243.96C455.636 244.587 455.763 245.013 456.016 245.24C456.27 245.453 456.716 245.56 457.356 245.56H458.396V247H456.876ZM463.991 247.24C463.164 247.24 462.477 247.1 461.931 246.82C461.384 246.54 460.977 246.167 460.711 245.7C460.444 245.233 460.311 244.727 460.311 244.18C460.311 243.167 460.697 242.387 461.471 241.84C462.244 241.293 463.297 241.02 464.631 241.02H467.311V240.9C467.311 240.033 467.084 239.38 466.631 238.94C466.177 238.487 465.571 238.26 464.811 238.26C464.157 238.26 463.591 238.427 463.111 238.76C462.644 239.08 462.351 239.553 462.231 240.18H460.511C460.577 239.46 460.817 238.853 461.231 238.36C461.657 237.867 462.184 237.493 462.811 237.24C463.437 236.973 464.104 236.84 464.811 236.84C466.197 236.84 467.237 237.213 467.931 237.96C468.637 238.693 468.991 239.673 468.991 240.9V247H467.491L467.391 245.22C467.111 245.78 466.697 246.26 466.151 246.66C465.617 247.047 464.897 247.24 463.991 247.24ZM464.251 245.82C464.891 245.82 465.437 245.653 465.891 245.32C466.357 244.987 466.711 244.553 466.951 244.02C467.191 243.487 467.311 242.927 467.311 242.34V242.32H464.771C463.784 242.32 463.084 242.493 462.671 242.84C462.271 243.173 462.071 243.593 462.071 244.1C462.071 244.62 462.257 245.04 462.631 245.36C463.017 245.667 463.557 245.82 464.251 245.82ZM476.811 247.24C475.998 247.24 475.271 247.073 474.631 246.74C474.004 246.407 473.524 245.94 473.191 245.34L473.031 247H471.511V232.6H473.191V238.72C473.511 238.24 473.964 237.807 474.551 237.42C475.151 237.033 475.911 236.84 476.831 236.84C477.818 236.84 478.678 237.067 479.411 237.52C480.144 237.973 480.711 238.593 481.111 239.38C481.524 240.167 481.731 241.06 481.731 242.06C481.731 243.06 481.524 243.953 481.111 244.74C480.711 245.513 480.138 246.127 479.391 246.58C478.658 247.02 477.798 247.24 476.811 247.24ZM476.631 245.78C477.298 245.78 477.884 245.627 478.391 245.32C478.898 245 479.298 244.56 479.591 244C479.884 243.44 480.031 242.787 480.031 242.04C480.031 241.293 479.884 240.64 479.591 240.08C479.298 239.52 478.898 239.087 478.391 238.78C477.884 238.46 477.298 238.3 476.631 238.3C475.964 238.3 475.378 238.46 474.871 238.78C474.364 239.087 473.964 239.52 473.671 240.08C473.378 240.64 473.231 241.293 473.231 242.04C473.231 242.787 473.378 243.44 473.671 244C473.964 244.56 474.364 245 474.871 245.32C475.378 245.627 475.964 245.78 476.631 245.78ZM484.069 247V232.6H485.749V247H484.069ZM492.963 247.24C492.016 247.24 491.176 247.027 490.443 246.6C489.71 246.16 489.13 245.553 488.703 244.78C488.29 244.007 488.083 243.093 488.083 242.04C488.083 241 488.29 240.093 488.703 239.32C489.116 238.533 489.69 237.927 490.423 237.5C491.17 237.06 492.03 236.84 493.003 236.84C493.963 236.84 494.79 237.06 495.483 237.5C496.19 237.927 496.73 238.493 497.103 239.2C497.476 239.907 497.663 240.667 497.663 241.48C497.663 241.627 497.656 241.773 497.643 241.92C497.643 242.067 497.643 242.233 497.643 242.42H489.743C489.783 243.18 489.956 243.813 490.263 244.32C490.583 244.813 490.976 245.187 491.443 245.44C491.923 245.693 492.43 245.82 492.963 245.82C493.656 245.82 494.236 245.66 494.703 245.34C495.17 245.02 495.51 244.587 495.723 244.04H497.383C497.116 244.96 496.603 245.727 495.843 246.34C495.096 246.94 494.136 247.24 492.963 247.24ZM492.963 238.26C492.163 238.26 491.45 238.507 490.823 239C490.21 239.48 489.856 240.187 489.763 241.12H496.003C495.963 240.227 495.656 239.527 495.083 239.02C494.51 238.513 493.803 238.26 492.963 238.26ZM505.183 247V237.08H506.703L506.823 238.52C507.143 237.987 507.569 237.573 508.103 237.28C508.636 236.987 509.236 236.84 509.903 236.84C510.689 236.84 511.363 237 511.923 237.32C512.496 237.64 512.936 238.127 513.243 238.78C513.589 238.18 514.063 237.707 514.663 237.36C515.276 237.013 515.936 236.84 516.643 236.84C517.829 236.84 518.776 237.2 519.483 237.92C520.189 238.627 520.543 239.72 520.543 241.2V247H518.883V241.38C518.883 240.353 518.676 239.58 518.263 239.06C517.849 238.54 517.256 238.28 516.483 238.28C515.683 238.28 515.016 238.593 514.483 239.22C513.963 239.833 513.703 240.713 513.703 241.86V247H512.023V241.38C512.023 240.353 511.816 239.58 511.403 239.06C510.989 238.54 510.396 238.28 509.623 238.28C508.836 238.28 508.176 238.593 507.643 239.22C507.123 239.833 506.863 240.713 506.863 241.86V247H505.183ZM527.593 247.24C526.66 247.24 525.82 247.027 525.073 246.6C524.327 246.173 523.733 245.573 523.293 244.8C522.867 244.013 522.653 243.093 522.653 242.04C522.653 240.987 522.873 240.073 523.313 239.3C523.753 238.513 524.347 237.907 525.093 237.48C525.853 237.053 526.7 236.84 527.633 236.84C528.567 236.84 529.407 237.053 530.153 237.48C530.9 237.907 531.487 238.513 531.913 239.3C532.353 240.073 532.573 240.987 532.573 242.04C532.573 243.093 532.353 244.013 531.913 244.8C531.473 245.573 530.873 246.173 530.113 246.6C529.367 247.027 528.527 247.24 527.593 247.24ZM527.593 245.8C528.167 245.8 528.7 245.66 529.193 245.38C529.687 245.1 530.087 244.68 530.393 244.12C530.7 243.56 530.853 242.867 530.853 242.04C530.853 241.213 530.7 240.52 530.393 239.96C530.1 239.4 529.707 238.98 529.213 238.7C528.72 238.42 528.193 238.28 527.633 238.28C527.06 238.28 526.527 238.42 526.033 238.7C525.54 238.98 525.14 239.4 524.833 239.96C524.527 240.52 524.373 241.213 524.373 242.04C524.373 242.867 524.527 243.56 524.833 244.12C525.14 244.68 525.533 245.1 526.013 245.38C526.507 245.66 527.033 245.8 527.593 245.8ZM534.909 247V237.08H536.429L536.549 238.52C536.869 237.987 537.296 237.573 537.829 237.28C538.363 236.987 538.963 236.84 539.629 236.84C540.416 236.84 541.089 237 541.649 237.32C542.223 237.64 542.663 238.127 542.969 238.78C543.316 238.18 543.789 237.707 544.389 237.36C545.003 237.013 545.663 236.84 546.369 236.84C547.556 236.84 548.503 237.2 549.209 237.92C549.916 238.627 550.269 239.72 550.269 241.2V247H548.609V241.38C548.609 240.353 548.403 239.58 547.989 239.06C547.576 238.54 546.983 238.28 546.209 238.28C545.409 238.28 544.743 238.593 544.209 239.22C543.689 239.833 543.429 240.713 543.429 241.86V247H541.749V241.38C541.749 240.353 541.543 239.58 541.129 239.06C540.716 238.54 540.123 238.28 539.349 238.28C538.563 238.28 537.903 238.593 537.369 239.22C536.849 239.833 536.589 240.713 536.589 241.86V247H534.909ZM557.26 247.24C556.313 247.24 555.473 247.027 554.74 246.6C554.007 246.16 553.427 245.553 553 244.78C552.587 244.007 552.38 243.093 552.38 242.04C552.38 241 552.587 240.093 553 239.32C553.413 238.533 553.987 237.927 554.72 237.5C555.467 237.06 556.327 236.84 557.3 236.84C558.26 236.84 559.087 237.06 559.78 237.5C560.487 237.927 561.027 238.493 561.4 239.2C561.773 239.907 561.96 240.667 561.96 241.48C561.96 241.627 561.953 241.773 561.94 241.92C561.94 242.067 561.94 242.233 561.94 242.42H554.04C554.08 243.18 554.253 243.813 554.56 244.32C554.88 244.813 555.273 245.187 555.74 245.44C556.22 245.693 556.727 245.82 557.26 245.82C557.953 245.82 558.533 245.66 559 245.34C559.467 245.02 559.807 244.587 560.02 244.04H561.68C561.413 244.96 560.9 245.727 560.14 246.34C559.393 246.94 558.433 247.24 557.26 247.24ZM557.26 238.26C556.46 238.26 555.747 238.507 555.12 239C554.507 239.48 554.153 240.187 554.06 241.12H560.3C560.26 240.227 559.953 239.527 559.38 239.02C558.807 238.513 558.1 238.26 557.26 238.26ZM564.187 247V237.08H565.707L565.807 238.86C566.127 238.233 566.587 237.74 567.187 237.38C567.787 237.02 568.467 236.84 569.227 236.84C570.4 236.84 571.333 237.2 572.027 237.92C572.733 238.627 573.087 239.72 573.087 241.2V247H571.407V241.38C571.407 239.313 570.553 238.28 568.847 238.28C567.993 238.28 567.28 238.593 566.707 239.22C566.147 239.833 565.867 240.713 565.867 241.86V247H564.187ZM579.552 247C578.645 247 577.932 246.78 577.412 246.34C576.892 245.9 576.632 245.107 576.632 243.96V238.5H574.912V237.08H576.632L576.852 234.7H578.312V237.08H581.232V238.5H578.312V243.96C578.312 244.587 578.439 245.013 578.692 245.24C578.945 245.453 579.392 245.56 580.032 245.56H581.072V247H579.552ZM587.166 247.24C585.98 247.24 584.993 246.94 584.206 246.34C583.42 245.74 582.96 244.927 582.826 243.9H584.546C584.653 244.42 584.926 244.873 585.366 245.26C585.82 245.633 586.426 245.82 587.186 245.82C587.893 245.82 588.413 245.673 588.746 245.38C589.08 245.073 589.246 244.713 589.246 244.3C589.246 243.7 589.026 243.3 588.586 243.1C588.16 242.9 587.553 242.72 586.766 242.56C586.233 242.453 585.7 242.3 585.166 242.1C584.633 241.9 584.186 241.62 583.826 241.26C583.466 240.887 583.286 240.4 583.286 239.8C583.286 238.933 583.606 238.227 584.246 237.68C584.9 237.12 585.78 236.84 586.886 236.84C587.94 236.84 588.8 237.107 589.466 237.64C590.146 238.16 590.54 238.907 590.646 239.88H588.986C588.92 239.373 588.7 238.98 588.326 238.7C587.966 238.407 587.48 238.26 586.866 238.26C586.266 238.26 585.8 238.387 585.466 238.64C585.146 238.893 584.986 239.227 584.986 239.64C584.986 240.04 585.193 240.353 585.606 240.58C586.033 240.807 586.606 241 587.326 241.16C587.94 241.293 588.52 241.46 589.066 241.66C589.626 241.847 590.08 242.133 590.426 242.52C590.786 242.893 590.966 243.44 590.966 244.16C590.98 245.053 590.64 245.793 589.946 246.38C589.266 246.953 588.34 247.24 587.166 247.24ZM185.05 266.88C184.717 266.88 184.437 266.773 184.21 266.56C183.997 266.333 183.89 266.053 183.89 265.72C183.89 265.4 183.997 265.133 184.21 264.92C184.437 264.707 184.717 264.6 185.05 264.6C185.37 264.6 185.644 264.707 185.87 264.92C186.097 265.133 186.21 265.4 186.21 265.72C186.21 266.053 186.097 266.333 185.87 266.56C185.644 266.773 185.37 266.88 185.05 266.88ZM184.21 279V269.08H185.89V279H184.21ZM188.816 279V269.08H190.336L190.436 270.86C190.756 270.233 191.216 269.74 191.816 269.38C192.416 269.02 193.096 268.84 193.856 268.84C195.029 268.84 195.962 269.2 196.656 269.92C197.362 270.627 197.716 271.72 197.716 273.2V279H196.036V273.38C196.036 271.313 195.182 270.28 193.476 270.28C192.622 270.28 191.909 270.593 191.336 271.22C190.776 271.833 190.496 272.713 190.496 273.86V279H188.816ZM210.074 279.24C209.14 279.24 208.3 279.027 207.554 278.6C206.807 278.173 206.214 277.573 205.774 276.8C205.347 276.013 205.134 275.093 205.134 274.04C205.134 272.987 205.354 272.073 205.794 271.3C206.234 270.513 206.827 269.907 207.574 269.48C208.334 269.053 209.18 268.84 210.114 268.84C211.047 268.84 211.887 269.053 212.634 269.48C213.38 269.907 213.967 270.513 214.394 271.3C214.834 272.073 215.054 272.987 215.054 274.04C215.054 275.093 214.834 276.013 214.394 276.8C213.954 277.573 213.354 278.173 212.594 278.6C211.847 279.027 211.007 279.24 210.074 279.24ZM210.074 277.8C210.647 277.8 211.18 277.66 211.674 277.38C212.167 277.1 212.567 276.68 212.874 276.12C213.18 275.56 213.334 274.867 213.334 274.04C213.334 273.213 213.18 272.52 212.874 271.96C212.58 271.4 212.187 270.98 211.694 270.7C211.2 270.42 210.674 270.28 210.114 270.28C209.54 270.28 209.007 270.42 208.514 270.7C208.02 270.98 207.62 271.4 207.314 271.96C207.007 272.52 206.854 273.213 206.854 274.04C206.854 274.867 207.007 275.56 207.314 276.12C207.62 276.68 208.014 277.1 208.494 277.38C208.987 277.66 209.514 277.8 210.074 277.8ZM221.01 279.24C219.836 279.24 218.903 278.887 218.21 278.18C217.516 277.46 217.17 276.36 217.17 274.88V269.08H218.85V274.7C218.85 276.767 219.696 277.8 221.39 277.8C222.256 277.8 222.97 277.493 223.53 276.88C224.103 276.253 224.39 275.367 224.39 274.22V269.08H226.07V279H224.55L224.43 277.22C224.123 277.847 223.663 278.34 223.05 278.7C222.45 279.06 221.77 279.24 221.01 279.24ZM228.835 279V269.08H230.355L230.495 270.98C230.802 270.327 231.268 269.807 231.895 269.42C232.522 269.033 233.295 268.84 234.215 268.84V270.6H233.755C233.168 270.6 232.628 270.707 232.135 270.92C231.642 271.12 231.248 271.467 230.955 271.96C230.662 272.453 230.515 273.133 230.515 274V279H228.835ZM243.394 279L240.494 269.08H242.174L244.274 276.86L246.594 269.08H248.494L250.834 276.86L252.914 269.08H254.614L251.714 279H249.994L247.554 270.82L245.114 279H243.394ZM260.561 279.24C259.614 279.24 258.774 279.027 258.041 278.6C257.307 278.16 256.727 277.553 256.301 276.78C255.887 276.007 255.681 275.093 255.681 274.04C255.681 273 255.887 272.093 256.301 271.32C256.714 270.533 257.287 269.927 258.021 269.5C258.767 269.06 259.627 268.84 260.601 268.84C261.561 268.84 262.387 269.06 263.081 269.5C263.787 269.927 264.327 270.493 264.701 271.2C265.074 271.907 265.261 272.667 265.261 273.48C265.261 273.627 265.254 273.773 265.241 273.92C265.241 274.067 265.241 274.233 265.241 274.42H257.341C257.381 275.18 257.554 275.813 257.861 276.32C258.181 276.813 258.574 277.187 259.041 277.44C259.521 277.693 260.027 277.82 260.561 277.82C261.254 277.82 261.834 277.66 262.301 277.34C262.767 277.02 263.107 276.587 263.321 276.04H264.981C264.714 276.96 264.201 277.727 263.441 278.34C262.694 278.94 261.734 279.24 260.561 279.24ZM260.561 270.26C259.761 270.26 259.047 270.507 258.421 271C257.807 271.48 257.454 272.187 257.361 273.12H263.601C263.561 272.227 263.254 271.527 262.681 271.02C262.107 270.513 261.401 270.26 260.561 270.26ZM267.487 279V264.6H269.167V279H267.487ZM276.481 279.24C275.534 279.24 274.681 279.027 273.921 278.6C273.174 278.16 272.581 277.553 272.141 276.78C271.714 275.993 271.501 275.08 271.501 274.04C271.501 273 271.714 272.093 272.141 271.32C272.581 270.533 273.174 269.927 273.921 269.5C274.681 269.06 275.534 268.84 276.481 268.84C277.654 268.84 278.641 269.147 279.441 269.76C280.254 270.373 280.768 271.193 280.981 272.22H279.261C279.128 271.607 278.801 271.133 278.281 270.8C277.761 270.453 277.154 270.28 276.461 270.28C275.901 270.28 275.374 270.42 274.881 270.7C274.388 270.98 273.988 271.4 273.681 271.96C273.374 272.52 273.221 273.213 273.221 274.04C273.221 274.867 273.374 275.56 273.681 276.12C273.988 276.68 274.388 277.107 274.881 277.4C275.374 277.68 275.901 277.82 276.461 277.82C277.154 277.82 277.761 277.653 278.281 277.32C278.801 276.973 279.128 276.487 279.261 275.86H280.981C280.781 276.86 280.274 277.673 279.461 278.3C278.648 278.927 277.654 279.24 276.481 279.24ZM287.847 279.24C286.914 279.24 286.074 279.027 285.327 278.6C284.581 278.173 283.987 277.573 283.547 276.8C283.121 276.013 282.907 275.093 282.907 274.04C282.907 272.987 283.127 272.073 283.567 271.3C284.007 270.513 284.601 269.907 285.347 269.48C286.107 269.053 286.954 268.84 287.887 268.84C288.821 268.84 289.661 269.053 290.407 269.48C291.154 269.907 291.741 270.513 292.167 271.3C292.607 272.073 292.827 272.987 292.827 274.04C292.827 275.093 292.607 276.013 292.167 276.8C291.727 277.573 291.127 278.173 290.367 278.6C289.621 279.027 288.781 279.24 287.847 279.24ZM287.847 277.8C288.421 277.8 288.954 277.66 289.447 277.38C289.941 277.1 290.341 276.68 290.647 276.12C290.954 275.56 291.107 274.867 291.107 274.04C291.107 273.213 290.954 272.52 290.647 271.96C290.354 271.4 289.961 270.98 289.467 270.7C288.974 270.42 288.447 270.28 287.887 270.28C287.314 270.28 286.781 270.42 286.287 270.7C285.794 270.98 285.394 271.4 285.087 271.96C284.781 272.52 284.627 273.213 284.627 274.04C284.627 274.867 284.781 275.56 285.087 276.12C285.394 276.68 285.787 277.1 286.267 277.38C286.761 277.66 287.287 277.8 287.847 277.8ZM295.163 279V269.08H296.683L296.803 270.52C297.123 269.987 297.55 269.573 298.083 269.28C298.617 268.987 299.217 268.84 299.883 268.84C300.67 268.84 301.343 269 301.903 269.32C302.477 269.64 302.917 270.127 303.223 270.78C303.57 270.18 304.043 269.707 304.643 269.36C305.257 269.013 305.917 268.84 306.623 268.84C307.81 268.84 308.757 269.2 309.463 269.92C310.17 270.627 310.523 271.72 310.523 273.2V279H308.863V273.38C308.863 272.353 308.657 271.58 308.243 271.06C307.83 270.54 307.237 270.28 306.463 270.28C305.663 270.28 304.997 270.593 304.463 271.22C303.943 271.833 303.683 272.713 303.683 273.86V279H302.003V273.38C302.003 272.353 301.797 271.58 301.383 271.06C300.97 270.54 300.377 270.28 299.603 270.28C298.817 270.28 298.157 270.593 297.623 271.22C297.103 271.833 296.843 272.713 296.843 273.86V279H295.163ZM314.074 266.88C313.74 266.88 313.46 266.773 313.234 266.56C313.02 266.333 312.914 266.053 312.914 265.72C312.914 265.4 313.02 265.133 313.234 264.92C313.46 264.707 313.74 264.6 314.074 264.6C314.394 264.6 314.667 264.707 314.894 264.92C315.12 265.133 315.234 265.4 315.234 265.72C315.234 266.053 315.12 266.333 314.894 266.56C314.667 266.773 314.394 266.88 314.074 266.88ZM313.234 279V269.08H314.914V279H313.234ZM317.839 279V269.08H319.359L319.459 270.86C319.779 270.233 320.239 269.74 320.839 269.38C321.439 269.02 322.119 268.84 322.879 268.84C324.052 268.84 324.986 269.2 325.679 269.92C326.386 270.627 326.739 271.72 326.739 273.2V279H325.059V273.38C325.059 271.313 324.206 270.28 322.499 270.28C321.646 270.28 320.932 270.593 320.359 271.22C319.799 271.833 319.519 272.713 319.519 273.86V279H317.839ZM333.204 275.88C332.644 275.88 332.131 275.807 331.664 275.66L330.664 276.6C330.811 276.707 330.991 276.8 331.204 276.88C331.431 276.947 331.751 277.013 332.164 277.08C332.578 277.133 333.158 277.193 333.904 277.26C335.238 277.353 336.191 277.66 336.764 278.18C337.338 278.7 337.624 279.38 337.624 280.22C337.624 280.793 337.464 281.34 337.144 281.86C336.838 282.38 336.358 282.807 335.704 283.14C335.064 283.473 334.238 283.64 333.224 283.64C332.331 283.64 331.538 283.52 330.844 283.28C330.151 283.053 329.611 282.7 329.224 282.22C328.838 281.753 328.644 281.16 328.644 280.44C328.644 280.067 328.744 279.66 328.944 279.22C329.144 278.793 329.518 278.387 330.064 278C329.771 277.88 329.518 277.753 329.304 277.62C329.104 277.473 328.918 277.313 328.744 277.14V276.68L330.444 275C329.658 274.333 329.264 273.453 329.264 272.36C329.264 271.707 329.418 271.113 329.724 270.58C330.031 270.047 330.478 269.627 331.064 269.32C331.651 269 332.364 268.84 333.204 268.84C333.778 268.84 334.298 268.92 334.764 269.08H338.424V270.34L336.564 270.42C336.951 270.98 337.144 271.627 337.144 272.36C337.144 273.013 336.984 273.607 336.664 274.14C336.358 274.673 335.911 275.1 335.324 275.42C334.751 275.727 334.044 275.88 333.204 275.88ZM333.204 274.5C333.911 274.5 334.471 274.32 334.884 273.96C335.311 273.587 335.524 273.053 335.524 272.36C335.524 271.68 335.311 271.16 334.884 270.8C334.471 270.427 333.911 270.24 333.204 270.24C332.484 270.24 331.911 270.427 331.484 270.8C331.071 271.16 330.864 271.68 330.864 272.36C330.864 273.053 331.071 273.587 331.484 273.96C331.911 274.32 332.484 274.5 333.204 274.5ZM330.284 280.28C330.284 280.947 330.564 281.44 331.124 281.76C331.684 282.093 332.384 282.26 333.224 282.26C334.051 282.26 334.711 282.08 335.204 281.72C335.711 281.36 335.964 280.88 335.964 280.28C335.964 279.853 335.791 279.48 335.444 279.16C335.098 278.853 334.458 278.673 333.524 278.62C332.791 278.567 332.158 278.5 331.624 278.42C331.078 278.713 330.718 279.027 330.544 279.36C330.371 279.707 330.284 280.013 330.284 280.28ZM338.979 281.38L340.139 276.96H341.879L340.139 281.38H338.979ZM353.727 279.24C352.78 279.24 351.927 279.027 351.167 278.6C350.42 278.16 349.827 277.553 349.387 276.78C348.96 275.993 348.747 275.08 348.747 274.04C348.747 273 348.96 272.093 349.387 271.32C349.827 270.533 350.42 269.927 351.167 269.5C351.927 269.06 352.78 268.84 353.727 268.84C354.9 268.84 355.887 269.147 356.687 269.76C357.5 270.373 358.014 271.193 358.227 272.22H356.507C356.374 271.607 356.047 271.133 355.527 270.8C355.007 270.453 354.4 270.28 353.707 270.28C353.147 270.28 352.62 270.42 352.127 270.7C351.634 270.98 351.234 271.4 350.927 271.96C350.62 272.52 350.467 273.213 350.467 274.04C350.467 274.867 350.62 275.56 350.927 276.12C351.234 276.68 351.634 277.107 352.127 277.4C352.62 277.68 353.147 277.82 353.707 277.82C354.4 277.82 355.007 277.653 355.527 277.32C356.047 276.973 356.374 276.487 356.507 275.86H358.227C358.027 276.86 357.52 277.673 356.707 278.3C355.894 278.927 354.9 279.24 353.727 279.24ZM364.193 279.24C363.02 279.24 362.087 278.887 361.393 278.18C360.7 277.46 360.353 276.36 360.353 274.88V269.08H362.033V274.7C362.033 276.767 362.88 277.8 364.573 277.8C365.44 277.8 366.153 277.493 366.713 276.88C367.287 276.253 367.573 275.367 367.573 274.22V269.08H369.253V279H367.733L367.613 277.22C367.307 277.847 366.847 278.34 366.233 278.7C365.633 279.06 364.953 279.24 364.193 279.24ZM372.019 279V264.6H373.699V279H372.019ZM377.472 266.88C377.139 266.88 376.859 266.773 376.632 266.56C376.419 266.333 376.312 266.053 376.312 265.72C376.312 265.4 376.419 265.133 376.632 264.92C376.859 264.707 377.139 264.6 377.472 264.6C377.792 264.6 378.066 264.707 378.292 264.92C378.519 265.133 378.632 265.4 378.632 265.72C378.632 266.053 378.519 266.333 378.292 266.56C378.066 266.773 377.792 266.88 377.472 266.88ZM376.632 279V269.08H378.312V279H376.632ZM381.237 279V269.08H382.757L382.857 270.86C383.177 270.233 383.637 269.74 384.237 269.38C384.837 269.02 385.517 268.84 386.277 268.84C387.451 268.84 388.384 269.2 389.077 269.92C389.784 270.627 390.137 271.72 390.137 273.2V279H388.457V273.38C388.457 271.313 387.604 270.28 385.897 270.28C385.044 270.28 384.331 270.593 383.757 271.22C383.197 271.833 382.917 272.713 382.917 273.86V279H381.237ZM395.983 279.24C395.156 279.24 394.469 279.1 393.923 278.82C393.376 278.54 392.969 278.167 392.703 277.7C392.436 277.233 392.303 276.727 392.303 276.18C392.303 275.167 392.689 274.387 393.463 273.84C394.236 273.293 395.289 273.02 396.623 273.02H399.303V272.9C399.303 272.033 399.076 271.38 398.623 270.94C398.169 270.487 397.563 270.26 396.803 270.26C396.149 270.26 395.583 270.427 395.103 270.76C394.636 271.08 394.343 271.553 394.223 272.18H392.503C392.569 271.46 392.809 270.853 393.223 270.36C393.649 269.867 394.176 269.493 394.803 269.24C395.429 268.973 396.096 268.84 396.803 268.84C398.189 268.84 399.229 269.213 399.923 269.96C400.629 270.693 400.983 271.673 400.983 272.9V279H399.483L399.383 277.22C399.103 277.78 398.689 278.26 398.143 278.66C397.609 279.047 396.889 279.24 395.983 279.24ZM396.243 277.82C396.883 277.82 397.429 277.653 397.883 277.32C398.349 276.987 398.703 276.553 398.943 276.02C399.183 275.487 399.303 274.927 399.303 274.34V274.32H396.763C395.776 274.32 395.076 274.493 394.663 274.84C394.263 275.173 394.063 275.593 394.063 276.1C394.063 276.62 394.249 277.04 394.623 277.36C395.009 277.667 395.549 277.82 396.243 277.82ZM403.503 279V269.08H405.023L405.163 270.98C405.47 270.327 405.936 269.807 406.563 269.42C407.19 269.033 407.963 268.84 408.883 268.84V270.6H408.423C407.836 270.6 407.296 270.707 406.803 270.92C406.31 271.12 405.916 271.467 405.623 271.96C405.33 272.453 405.183 273.133 405.183 274V279H403.503ZM411.849 283.4L414.309 278.04H413.729L409.789 269.08H411.609L414.889 276.8L418.369 269.08H420.109L413.609 283.4H411.849ZM427.175 279V264.6H428.855V270.78C429.188 270.167 429.662 269.693 430.275 269.36C430.888 269.013 431.555 268.84 432.275 268.84C433.422 268.84 434.342 269.2 435.035 269.92C435.728 270.627 436.075 271.72 436.075 273.2V279H434.415V273.38C434.415 271.313 433.582 270.28 431.915 270.28C431.048 270.28 430.322 270.593 429.735 271.22C429.148 271.833 428.855 272.713 428.855 273.86V279H427.175ZM441.92 279.24C441.094 279.24 440.407 279.1 439.86 278.82C439.314 278.54 438.907 278.167 438.64 277.7C438.374 277.233 438.24 276.727 438.24 276.18C438.24 275.167 438.627 274.387 439.4 273.84C440.174 273.293 441.227 273.02 442.56 273.02H445.24V272.9C445.24 272.033 445.014 271.38 444.56 270.94C444.107 270.487 443.5 270.26 442.74 270.26C442.087 270.26 441.52 270.427 441.04 270.76C440.574 271.08 440.28 271.553 440.16 272.18H438.44C438.507 271.46 438.747 270.853 439.16 270.36C439.587 269.867 440.114 269.493 440.74 269.24C441.367 268.973 442.034 268.84 442.74 268.84C444.127 268.84 445.167 269.213 445.86 269.96C446.567 270.693 446.92 271.673 446.92 272.9V279H445.42L445.32 277.22C445.04 277.78 444.627 278.26 444.08 278.66C443.547 279.047 442.827 279.24 441.92 279.24ZM442.18 277.82C442.82 277.82 443.367 277.653 443.82 277.32C444.287 276.987 444.64 276.553 444.88 276.02C445.12 275.487 445.24 274.927 445.24 274.34V274.32H442.7C441.714 274.32 441.014 274.493 440.6 274.84C440.2 275.173 440 275.593 440 276.1C440 276.62 440.187 277.04 440.56 277.36C440.947 277.667 441.487 277.82 442.18 277.82ZM451.929 279L448.169 269.08H449.929L452.909 277.38L455.909 269.08H457.629L453.869 279H451.929ZM463.451 279.24C462.505 279.24 461.665 279.027 460.931 278.6C460.198 278.16 459.618 277.553 459.191 276.78C458.778 276.007 458.571 275.093 458.571 274.04C458.571 273 458.778 272.093 459.191 271.32C459.605 270.533 460.178 269.927 460.911 269.5C461.658 269.06 462.518 268.84 463.491 268.84C464.451 268.84 465.278 269.06 465.971 269.5C466.678 269.927 467.218 270.493 467.591 271.2C467.965 271.907 468.151 272.667 468.151 273.48C468.151 273.627 468.145 273.773 468.131 273.92C468.131 274.067 468.131 274.233 468.131 274.42H460.231C460.271 275.18 460.445 275.813 460.751 276.32C461.071 276.813 461.465 277.187 461.931 277.44C462.411 277.693 462.918 277.82 463.451 277.82C464.145 277.82 464.725 277.66 465.191 277.34C465.658 277.02 465.998 276.587 466.211 276.04H467.871C467.605 276.96 467.091 277.727 466.331 278.34C465.585 278.94 464.625 279.24 463.451 279.24ZM463.451 270.26C462.651 270.26 461.938 270.507 461.311 271C460.698 271.48 460.345 272.187 460.251 273.12H466.491C466.451 272.227 466.145 271.527 465.571 271.02C464.998 270.513 464.291 270.26 463.451 270.26ZM470.378 279V269.08H471.898L471.998 270.86C472.318 270.233 472.778 269.74 473.378 269.38C473.978 269.02 474.658 268.84 475.418 268.84C476.591 268.84 477.525 269.2 478.218 269.92C478.925 270.627 479.278 271.72 479.278 273.2V279H477.598V273.38C477.598 271.313 476.745 270.28 475.038 270.28C474.185 270.28 473.471 270.593 472.898 271.22C472.338 271.833 472.058 272.713 472.058 273.86V279H470.378ZM482.403 279.1C482.07 279.1 481.79 278.993 481.563 278.78C481.35 278.553 481.243 278.28 481.243 277.96C481.243 277.64 481.35 277.373 481.563 277.16C481.79 276.933 482.07 276.82 482.403 276.82C482.723 276.82 482.99 276.933 483.203 277.16C483.43 277.373 483.543 277.64 483.543 277.96C483.543 278.28 483.43 278.553 483.203 278.78C482.99 278.993 482.723 279.1 482.403 279.1Z" fill="#2C2F24"/>
</svg>
